<?xml version="1.0" encoding="utf-8" standalone="no"?>
<!DOCTYPE svg PUBLIC "-//W3C//DTD SVG 1.1//EN"
  "http://www.w3.org/Graphics/SVG/1.1/DTD/svg11.dtd">
<!-- Created with matplotlib (http://matplotlib.org/) -->
<svg id="vector-field" version="1.1" viewBox="70 30 500 402" xmlns="http://www.w3.org/2000/svg" xmlns:xlink="http://www.w3.org/1999/xlink">
 <defs>
  <style type="text/css">
*{stroke-linecap:butt;stroke-linejoin:round;}
  </style>
 </defs>
 <g id="figure_1">
  <g id="patch_1">
   <path d="
M0 432
L576 432
L576 0
L0 0
z
" style="fill:none;"/>
  </g>
  <g id="axes_1">
   <g id="winds">
    <defs>
     <path id="C0_0_d41d8cd98f"/>
     <path d="
M-1.674 -1.02503e-16
L-1.674 -3.02708
L-5.022 -1.35308
L1.10788e-15 -18.0931
L5.022 -1.35308
L1.674 -3.02708
L1.674 1.02503e-16
L-1.674 -1.02503e-16" id="C0_1_a43ab57bd7"/>
     <path d="
M-1.674 -1.02503e-16
L-1.674 -8.80797
L-5.022 -7.13397
L1.46186e-15 -23.874
L5.022 -7.13397
L1.674 -8.80797
L1.674 1.02503e-16
L-1.674 -1.02503e-16" id="C0_2_04f0281bec"/>
     <path d="
M-1.674 -1.02503e-16
L-1.674 -13.0117
L-5.022 -11.3377
L1.71926e-15 -28.0777
L5.022 -11.3377
L1.674 -13.0117
L1.674 1.02503e-16
L-1.674 -1.02503e-16" id="C0_3_ff82ea9498"/>
     <path d="
M-1.674 -1.02503e-16
L-1.674 -16.4359
L-5.022 -14.7619
L1.92893e-15 -31.5019
L5.022 -14.7619
L1.674 -16.4359
L1.674 1.02503e-16
L-1.674 -1.02503e-16" id="C0_4_2533776b49"/>
     <path d="
M-1.674 -1.02503e-16
L-1.674 -19.377
L-5.022 -17.703
L2.10902e-15 -34.443
L5.022 -17.703
L1.674 -19.377
L1.674 1.02503e-16
L-1.674 -1.02503e-16" id="C0_5_d3955f27f6"/>
     <path d="
M-1.674 -1.02503e-16
L-1.674 -21.9827
L-5.022 -20.3087
L2.26858e-15 -37.0487
L5.022 -20.3087
L1.674 -21.9827
L1.674 1.02503e-16
L-1.674 -1.02503e-16" id="C0_6_eaae736026"/>
     <path d="
M-2.05006e-16 1.674
L-4.41392 1.674
L-2.73992 5.022
L-19.4799 -2.3856e-15
L-2.73992 -5.022
L-4.41392 -1.674
L2.05006e-16 -1.674
L-2.05006e-16 1.674" id="C0_7_a5afcbf757"/>
     <path d="
M-1.14803 1.21832
L-3.8578 -1.33512
L-4.93555 2.24955
L-13.6746 -12.8857
L1.95264 -5.06036
L-1.56174 -3.77176
L1.14803 -1.21832
L-1.14803 1.21832" id="C0_8_16f34a85af"/>
     <path d="
M-1.47873 0.78463
L-5.03684 -5.92105
L-7.20967 -2.87307
L-10.6198 -20.0142
L1.66269 -7.58085
L-2.07939 -7.49031
L1.47873 -0.78463
L-1.47873 0.78463" id="C0_9_255bb1034e"/>
     <path d="
M-1.57817 0.558264
L-5.40225 -10.2521
L-8.00032 -7.55741
L-8.84845 -25.0139
L1.46869 -10.907
L-2.24591 -11.3686
L1.57817 -0.558264
L-1.57817 0.558264" id="C0_a_2bfef94858"/>
     <path d="
M-1.61802 0.429272
L-5.43517 -13.9584
L-8.24194 -11.4818
L-7.68059 -28.9499
L1.4662 -14.0575
L-2.19912 -14.817
L1.61802 -0.429272
L-1.61802 0.429272" id="C0_b_11d1996543"/>
     <path d="
M-1.63752 0.347556
L-5.35379 -17.1618
L-8.28128 -14.8291
L-6.84427 -32.247
L1.54386 -16.9145
L-2.07874 -17.8569
L1.63752 -0.347556
L-1.63752 0.347556" id="C0_c_038a11863b"/>
     <path d="
M-1.64841 0.291556
L-5.23525 -19.9879
L-8.24053 -17.7564
L-6.21085 -35.1152
L1.64996 -19.5057
L-1.93842 -20.571
L1.64841 -0.291556
L-1.64841 0.291556" id="C0_d_dfe9788093"/>
     <path d="
M-2.05006e-16 1.674
L-5.10088 1.674
L-3.42688 5.022
L-20.1669 -2.46973e-15
L-3.42688 -5.022
L-5.10088 -1.674
L2.05006e-16 -1.674
L-2.05006e-16 1.674" id="C0_e_075d387749"/>
     <path d="
M-0.713485 1.51434
L-4.93902 -0.476541
L-4.85166 3.26562
L-17.8546 -8.41225
L-0.570743 -5.8204
L-3.51205 -3.50521
L0.713485 -1.51434
L-0.713485 1.51434" id="C0_f_e68454f213"/>
     <path d="
M-1.14803 1.21832
L-5.96168 -3.31762
L-7.03942 0.267051
L-15.7785 -14.8682
L-0.151235 -7.04286
L-3.66562 -5.75426
L1.14803 -1.21832
L-1.14803 1.21832" id="C0_10_75687c2fb2"/>
     <path d="
M-1.36657 0.966827
L-6.81714 -6.73734
L-8.58346 -3.43711
L-14.152 -20.0033
L-0.384021 -9.23807
L-4.08399 -8.67099
L1.36657 -0.966827
L-1.36657 0.966827" id="C0_11_a95399b77b"/>
     <path d="
M-1.47873 0.78463
L-7.28643 -10.1607
L-9.45926 -7.11268
L-12.8694 -24.2538
L-0.586899 -11.8205
L-4.32898 -11.7299
L1.47873 -0.78463
L-1.47873 0.78463" id="C0_12_6f21a3706c"/>
     <path d="
M-1.54092 0.654103
L-7.49113 -13.3632
L-9.91886 -10.5141
L-11.8371 -27.8856
L-0.673361 -14.4387
L-4.4093 -14.6714
L1.54092 -0.654103
L-1.54092 0.654103" id="C0_13_d3d0d933f3"/>
     <path d="
M-1.57817 0.558264
L-7.54285 -16.3034
L-10.1409 -13.6087
L-10.9891 -31.0652
L-0.671915 -16.9583
L-4.38652 -17.42
L1.57817 -0.558264
L-1.57817 0.558264" id="C0_14_22ed546635"/>
     <path d="
M-2.05006e-16 1.674
L-5.5139 1.674
L-3.8399 5.022
L-20.5799 -2.52031e-15
L-3.8399 -5.022
L-5.5139 -1.674
L2.05006e-16 -1.674
L-2.05006e-16 1.674" id="C0_15_bff3cb437c"/>
     <path d="
M-0.501644 1.59707
L-5.50817 0.0245067
L-4.91439 3.72029
L-19.3801 -6.08735
L-1.90453 -5.86213
L-4.50488 -3.16963
L0.501644 -1.59707
L-0.501644 1.59707" id="C0_16_e4a3cb1ca6"/>
     <path d="
M-0.890483 1.4175
L-6.22975 -1.93665
L-6.59321 1.78884
L-18.0968 -11.3685
L-1.25032 -6.71618
L-4.44879 -4.77166
L0.890483 -1.4175
L-0.890483 1.4175" id="C0_17_856deec49d"/>
     <path d="
M-1.14803 1.21832
L-7.11671 -4.40601
L-8.19445 -0.821345
L-16.9335 -15.9566
L-1.30627 -8.13126
L-4.82065 -6.84265
L1.14803 -1.21832
L-1.14803 1.21832" id="C0_18_488daf9c7b"/>
     <path d="
M-1.30978 1.04248
L-7.83501 -7.15589
L-9.41209 -3.76116
L-15.9075 -19.9864
L-1.55342 -10.016
L-5.21545 -9.24085
L1.30978 -1.04248
L-1.30978 1.04248" id="C0_19_8e2edc2efa"/>
     <path d="
M-1.41205 0.899102
L-8.32725 -9.96131
L-10.2523 -6.75105
L-15.0071 -23.5689
L-1.77994 -12.1457
L-5.50315 -11.7595
L1.41205 -0.899102
L-1.41205 0.899102" id="C0_1a_fd0dee5e8a"/>
     <path d="
M-1.47873 0.78463
L-8.63229 -12.6971
L-10.8051 -9.6491
L-14.2152 -26.7903
L-1.93276 -14.3569
L-5.67484 -14.2663
L1.47873 -0.78463
L-1.47873 0.78463" id="C0_1b_1363eea555"/>
     <path d="
M-2.05006e-16 1.674
L-5.81207 1.674
L-4.13807 5.022
L-20.8781 -2.55683e-15
L-4.13807 -5.022
L-5.81207 -1.674
L2.05006e-16 -1.674
L-2.05006e-16 1.674" id="C0_1c_9e4164ce82"/>
     <path d="
M-0.383848 1.6294
L-5.86621 0.337879
L-5.00451 3.98052
L-20.1469 -4.74615
L-2.70142 -5.79586
L-5.09852 -2.92092
L0.383848 -1.6294
L-0.383848 1.6294" id="C0_1d_ca61ff558d"/>
     <path d="
M-0.713485 1.51434
L-6.38815 -1.1593
L-6.30078 2.58286
L-19.3037 -9.09501
L-2.01987 -6.50316
L-4.96118 -4.18798
L0.713485 -1.51434
L-0.713485 1.51434" id="C0_1e_26c598648b"/>
     <path d="
M-0.966142 1.36706
L-7.14412 -2.99911
L-7.70934 0.701148
L-18.4815 -13.0614
L-1.91249 -7.5012
L-5.21183 -5.73322
L0.966142 -1.36706
L-0.966142 1.36706" id="C0_1f_855b7fbc4b"/>
     <path d="
M-1.14803 1.21832
L-7.89154 -5.13615
L-8.96929 -1.55148
L-17.7084 -16.6867
L-2.0811 -8.86139
L-5.59548 -7.57278
L1.14803 -1.21832
L-1.14803 1.21832" id="C0_20_d002267a83"/>
     <path d="
M-1.27613 1.08341
L-8.51702 -7.44552
L-9.98587 -4.00258
L-16.9916 -20.0141
L-2.32909 -10.503
L-5.96476 -9.61234
L1.27613 -1.08341
L-1.27613 1.08341" id="C0_21_31c768d4d6"/>
     <path d="
M-1.36657 0.966827
L-8.99578 -9.81676
L-10.7621 -6.51654
L-16.3307 -23.0827
L-2.56266 -12.3175
L-6.26263 -11.7504
L1.36657 -0.966827
L-1.36657 0.966827" id="C0_22_31b5060108"/>
     <path d="
M-2.05006e-16 1.674
L-6.04631 1.674
L-4.37231 5.022
L-21.1123 -2.58551e-15
L-4.37231 -5.022
L-6.04631 -1.674
L2.05006e-16 -1.674
L-2.05006e-16 1.674" id="C0_23_c619c65e4f"/>
     <path d="
M-0.310027 1.64504
L-6.12427 0.54928
L-5.09928 4.14939
L-20.6196 -3.886
L-3.23912 -5.72086
L-5.50421 -2.7408
L0.310027 -1.64504
L-0.310027 1.64504" id="C0_24_50991c8019"/>
     <path d="
M-0.590421 1.56642
L-6.52158 -0.669169
L-6.136 3.0541
L-20.029 -7.54938
L-2.59348 -6.34444
L-5.34074 -3.80201
L0.590421 -1.56642
L-0.590421 1.56642" id="C0_25_562df47d39"/>
     <path d="
M-0.823889 1.45722
L-7.13835 -2.11288
L-7.32891 1.62544
L-19.4294 -10.9851
L-2.38558 -7.11787
L-5.49057 -5.02732
L0.823889 -1.45722
L-0.823889 1.45722" id="C0_26_9f894e356d"/>
     <path d="
M-1.00769 1.33673
L-7.82104 -3.79949
L-8.49968 -0.118345
L-18.8439 -14.2054
L-2.45356 -8.13871
L-5.80566 -6.47294
L1.00769 -1.33673
L-1.00769 1.33673" id="C0_27_b9b353f7e3"/>
     <path d="
M-1.14803 1.21832
L-8.46497 -5.67649
L-9.54272 -2.09182
L-18.2818 -17.2271
L-2.65453 -9.40174
L-6.16891 -8.11313
L1.14803 -1.21832
L-1.14803 1.21832" id="C0_28_fac0e9170a"/>
     <path d="
M-1.25398 1.10896
L-9.02028 -7.67293
L-10.4193 -4.20102
L-17.747 -20.0677
L-2.89539 -10.8548
L-6.51232 -9.89086
L1.25398 -1.10896
L-1.25398 1.10896" id="C0_29_257e213dfc"/>
     <path d="
M-2.05006e-16 1.674
L-6.23965 1.674
L-4.56565 5.022
L-21.3057 -2.60919e-15
L-4.56565 -5.022
L-6.23965 -1.674
L2.05006e-16 -1.674
L-2.05006e-16 1.674" id="C0_2a_64c23ba3e7"/>
     <path d="
M-0.25972 1.65373
L-6.32655 0.700926
L-5.19226 4.26811
L-20.9504 -3.29029
L-3.63394 -5.65427
L-5.80711 -2.60653
L0.25972 -1.65373
L-0.25972 1.65373" id="C0_2b_494bd2db8d"/>
     <path d="
M-0.501644 1.59707
L-6.64293 -0.331926
L-6.04915 3.36386
L-20.5149 -6.44379
L-3.03929 -6.21856
L-5.63965 -3.52606
L0.501644 -1.59707
L-0.501644 1.59707" id="C0_2c_93cad1d1b0"/>
     <path d="
M-0.713485 1.51434
L-7.14651 -1.51661
L-7.05914 2.22555
L-20.062 -9.45231
L-2.77823 -6.86047
L-5.71953 -4.54528
L0.713485 -1.51434
L-0.713485 1.51434" id="C0_2d_0e524e577f"/>
     <path d="
M-0.890483 1.4175
L-7.74209 -2.88671
L-8.10556 0.838777
L-19.6091 -12.3186
L-2.76266 -7.66624
L-5.96113 -5.72172
L0.890483 -1.4175
L-0.890483 1.4175" id="C0_2e_e313662c1b"/>
     <path d="
M-1.03386 1.31659
L-8.34895 -4.42763
L-9.10008 -0.760592
L-19.1644 -15.049
L-2.89692 -8.66013
L-6.28123 -7.06081
L1.03386 -1.31659
L-1.03386 1.31659" id="C0_2f_4e098e0ed4"/>
     <path d="
M-1.14803 1.21832
L-8.91527 -6.10081
L-9.99301 -2.51614
L-18.7321 -17.6514
L-3.10482 -9.82605
L-6.6192 -8.53744
L1.14803 -1.21832
L-1.14803 1.21832" id="C0_30_7ea3f7bfa0"/>
    </defs>
    <g clip-path="url(#p7ff5b81e1d)">
     <use x="72.0" xlink:href="#C0_0_d41d8cd98f" y="388.8"/>
    </g>
    <g clip-path="url(#p7ff5b81e1d)">
     <use x="144.912" xlink:href="#C0_1_a43ab57bd7" y="388.8"/>
    </g>
    <g clip-path="url(#p7ff5b81e1d)">
     <use x="217.824" xlink:href="#C0_2_04f0281bec" y="388.8"/>
    </g>
    <g clip-path="url(#p7ff5b81e1d)">
     <use x="290.736" xlink:href="#C0_3_ff82ea9498" y="388.8"/>
    </g>
    <g clip-path="url(#p7ff5b81e1d)">
     <use x="363.648" xlink:href="#C0_4_2533776b49" y="388.8"/>
    </g>
    <g clip-path="url(#p7ff5b81e1d)">
     <use x="436.56" xlink:href="#C0_5_d3955f27f6" y="388.8"/>
    </g>
    <g clip-path="url(#p7ff5b81e1d)">
     <use x="509.472" xlink:href="#C0_6_eaae736026" y="388.8"/>
    </g>
    <g clip-path="url(#p7ff5b81e1d)">
     <use x="72.0" xlink:href="#C0_7_a5afcbf757" y="338.88"/>
    </g>
    <g clip-path="url(#p7ff5b81e1d)">
     <use x="144.912" xlink:href="#C0_8_16f34a85af" y="338.88"/>
    </g>
    <g clip-path="url(#p7ff5b81e1d)">
     <use x="217.824" xlink:href="#C0_9_255bb1034e" y="338.88"/>
    </g>
    <g clip-path="url(#p7ff5b81e1d)">
     <use x="290.736" xlink:href="#C0_a_2bfef94858" y="338.88"/>
    </g>
    <g clip-path="url(#p7ff5b81e1d)">
     <use x="363.648" xlink:href="#C0_b_11d1996543" y="338.88"/>
    </g>
    <g clip-path="url(#p7ff5b81e1d)">
     <use x="436.56" xlink:href="#C0_c_038a11863b" y="338.88"/>
    </g>
    <g clip-path="url(#p7ff5b81e1d)">
     <use x="509.472" xlink:href="#C0_d_dfe9788093" y="338.88"/>
    </g>
    <g clip-path="url(#p7ff5b81e1d)">
     <use x="72.0" xlink:href="#C0_e_075d387749" y="288.96"/>
    </g>
    <g clip-path="url(#p7ff5b81e1d)">
     <use x="144.912" xlink:href="#C0_f_e68454f213" y="288.96"/>
    </g>
    <g clip-path="url(#p7ff5b81e1d)">
     <use x="217.824" xlink:href="#C0_10_75687c2fb2" y="288.96"/>
    </g>
    <g clip-path="url(#p7ff5b81e1d)">
     <use x="290.736" xlink:href="#C0_11_a95399b77b" y="288.96"/>
    </g>
    <g clip-path="url(#p7ff5b81e1d)">
     <use x="363.648" xlink:href="#C0_12_6f21a3706c" y="288.96"/>
    </g>
    <g clip-path="url(#p7ff5b81e1d)">
     <use x="436.56" xlink:href="#C0_13_d3d0d933f3" y="288.96"/>
    </g>
    <g clip-path="url(#p7ff5b81e1d)">
     <use x="509.472" xlink:href="#C0_14_22ed546635" y="288.96"/>
    </g>
    <g clip-path="url(#p7ff5b81e1d)">
     <use x="72.0" xlink:href="#C0_15_bff3cb437c" y="239.04"/>
    </g>
    <g clip-path="url(#p7ff5b81e1d)">
     <use x="144.912" xlink:href="#C0_16_e4a3cb1ca6" y="239.04"/>
    </g>
    <g clip-path="url(#p7ff5b81e1d)">
     <use x="217.824" xlink:href="#C0_17_856deec49d" y="239.04"/>
    </g>
    <g clip-path="url(#p7ff5b81e1d)">
     <use x="290.736" xlink:href="#C0_18_488daf9c7b" y="239.04"/>
    </g>
    <g clip-path="url(#p7ff5b81e1d)">
     <use x="363.648" xlink:href="#C0_19_8e2edc2efa" y="239.04"/>
    </g>
    <g clip-path="url(#p7ff5b81e1d)">
     <use x="436.56" xlink:href="#C0_1a_fd0dee5e8a" y="239.04"/>
    </g>
    <g clip-path="url(#p7ff5b81e1d)">
     <use x="509.472" xlink:href="#C0_1b_1363eea555" y="239.04"/>
    </g>
    <g clip-path="url(#p7ff5b81e1d)">
     <use x="72.0" xlink:href="#C0_1c_9e4164ce82" y="189.12"/>
    </g>
    <g clip-path="url(#p7ff5b81e1d)">
     <use x="144.912" xlink:href="#C0_1d_ca61ff558d" y="189.12"/>
    </g>
    <g clip-path="url(#p7ff5b81e1d)">
     <use x="217.824" xlink:href="#C0_1e_26c598648b" y="189.12"/>
    </g>
    <g clip-path="url(#p7ff5b81e1d)">
     <use x="290.736" xlink:href="#C0_1f_855b7fbc4b" y="189.12"/>
    </g>
    <g clip-path="url(#p7ff5b81e1d)">
     <use x="363.648" xlink:href="#C0_20_d002267a83" y="189.12"/>
    </g>
    <g clip-path="url(#p7ff5b81e1d)">
     <use x="436.56" xlink:href="#C0_21_31c768d4d6" y="189.12"/>
    </g>
    <g clip-path="url(#p7ff5b81e1d)">
     <use x="509.472" xlink:href="#C0_22_31b5060108" y="189.12"/>
    </g>
    <g clip-path="url(#p7ff5b81e1d)">
     <use x="72.0" xlink:href="#C0_23_c619c65e4f" y="139.2"/>
    </g>
    <g clip-path="url(#p7ff5b81e1d)">
     <use x="144.912" xlink:href="#C0_24_50991c8019" y="139.2"/>
    </g>
    <g clip-path="url(#p7ff5b81e1d)">
     <use x="217.824" xlink:href="#C0_25_562df47d39" y="139.2"/>
    </g>
    <g clip-path="url(#p7ff5b81e1d)">
     <use x="290.736" xlink:href="#C0_26_9f894e356d" y="139.2"/>
    </g>
    <g clip-path="url(#p7ff5b81e1d)">
     <use x="363.648" xlink:href="#C0_27_b9b353f7e3" y="139.2"/>
    </g>
    <g clip-path="url(#p7ff5b81e1d)">
     <use x="436.56" xlink:href="#C0_28_fac0e9170a" y="139.2"/>
    </g>
    <g clip-path="url(#p7ff5b81e1d)">
     <use x="509.472" xlink:href="#C0_29_257e213dfc" y="139.2"/>
    </g>
    <g clip-path="url(#p7ff5b81e1d)">
     <use x="72.0" xlink:href="#C0_2a_64c23ba3e7" y="89.28"/>
    </g>
    <g clip-path="url(#p7ff5b81e1d)">
     <use x="144.912" xlink:href="#C0_2b_494bd2db8d" y="89.28"/>
    </g>
    <g clip-path="url(#p7ff5b81e1d)">
     <use x="217.824" xlink:href="#C0_2c_93cad1d1b0" y="89.28"/>
    </g>
    <g clip-path="url(#p7ff5b81e1d)">
     <use x="290.736" xlink:href="#C0_2d_0e524e577f" y="89.28"/>
    </g>
    <g clip-path="url(#p7ff5b81e1d)">
     <use x="363.648" xlink:href="#C0_2e_e313662c1b" y="89.28"/>
    </g>
    <g clip-path="url(#p7ff5b81e1d)">
     <use x="436.56" xlink:href="#C0_2f_4e098e0ed4" y="89.28"/>
    </g>
    <g clip-path="url(#p7ff5b81e1d)">
     <use x="509.472" xlink:href="#C0_30_7ea3f7bfa0" y="89.28"/>
    </g>
   </g>
   <g id="avg-winds">
    <defs>
     <path d="
M-1.46679 0.806732
L-6.15778 -7.72235
L-8.28462 -4.6421
L-11.9516 -21.7302
L0.516091 -9.4825
L-3.22421 -9.33582
L1.46679 -0.806732
L-1.46679 0.806732" id="C1_0_48e67802b0"/>
    </defs>
    <g clip-path="url(#p7ff5b81e1d)">
     <use x="326.448" xlink:href="#C1_0_48e67802b0" y="244.8"/>
    </g>
   </g>
  </g>
 </g>
 <defs>
  <clipPath id="p7ff5b81e1d">
   <rect height="345.6" width="446.4" x="72.0" y="43.2"/>
  </clipPath>
 </defs>
</svg>
